<?xml version="1.0" standalone="no"?>
<!DOCTYPE svg PUBLIC "-//W3C//DTD SVG 20010904//EN"
 "http://www.w3.org/TR/2001/REC-SVG-20010904/DTD/svg10.dtd">
<svg version="1.0" xmlns="http://www.w3.org/2000/svg"
 width="197.000000pt" height="186.000000pt" viewBox="0 0 197.000000 186.000000"
 preserveAspectRatio="xMidYMid meet">

<g transform="translate(0.000000,186.000000) scale(0.100000,-0.100000)"
fill="#000000" stroke="none">
<path d="M800 1416 c-107 -62 -229 -133 -270 -158 l-75 -44 -3 -316 -2 -315
272 -157 c150 -86 278 -156 283 -156 6 0 129 70 275 154 l265 153 3 320 2 319
-52 30 c-29 17 -151 88 -271 157 -120 70 -221 127 -225 127 -4 -1 -95 -52
-202 -114z m451 -93 l239 -138 0 -286 0 -287 -241 -138 c-133 -77 -243 -139
-246 -139 -2 0 -114 63 -248 140 l-245 140 3 284 2 285 235 137 c129 75 241
137 249 138 7 1 121 -61 252 -136z"/>
<path d="M1030 1203 c0 -4 14 -22 32 -40 l32 -33 -51 -52 -51 -51 -32 26 c-17
15 -41 27 -52 27 -11 0 -53 -33 -99 -78 l-79 -78 0 -70 c0 -39 3 -74 7 -78 4
-3 46 32 93 79 l86 86 24 -26 c40 -43 66 -34 155 55 l81 80 29 -30 c16 -16 32
-30 37 -30 4 0 8 50 8 110 l0 110 -110 0 c-60 0 -110 -3 -110 -7z"/>
<path d="M1200 780 l0 -190 60 0 60 0 -2 188 -3 187 -57 3 -58 3 0 -191z"/>
<path d="M1030 715 l0 -125 60 0 61 0 -3 123 -3 122 -57 3 -58 3 0 -126z"/>
<path d="M860 690 l0 -100 60 0 61 0 -3 98 -3 97 -57 3 -58 3 0 -101z"/>
<path d="M690 650 l0 -60 60 0 60 0 0 60 0 60 -60 0 -60 0 0 -60z"/>
</g>
</svg>
